<svg width="24" height="24" viewBox="0 0 24 24" fill="none" xmlns="http://www.w3.org/2000/svg">
  <path d="M9.273 2.25C9.47191 2.25 9.66268 2.32902 9.80333 2.46967C9.94398 2.61032 10.023 2.80109 10.023 3V4.5H12.886V3C12.886 2.80109 12.965 2.61032 13.1057 2.46967C13.2463 2.32902 13.4371 2.25 13.636 2.25C13.8349 2.25 14.0257 2.32902 14.1663 2.46967C14.307 2.61032 14.386 2.80109 14.386 3V4.571C16.264 4.933 17.659 6.627 17.659 8.625C17.6606 9.18333 17.5501 9.7363 17.334 10.2511C17.1179 10.7659 16.8006 11.2321 16.401 11.622C17.794 12.276 18.75 13.722 18.75 15.375C18.75 17.631 16.97 19.5 14.727 19.5H14.387V21C14.387 21.1989 14.308 21.3897 14.1673 21.5303C14.0267 21.671 13.8359 21.75 13.637 21.75C13.4381 21.75 13.2473 21.671 13.1067 21.5303C12.966 21.3897 12.887 21.1989 12.887 21V19.5H10.023V21C10.023 21.1989 9.94398 21.3897 9.80333 21.5303C9.66268 21.671 9.47191 21.75 9.273 21.75C9.07409 21.75 8.88332 21.671 8.74267 21.5303C8.60202 21.3897 8.523 21.1989 8.523 21V19.5H6C5.80109 19.5 5.61032 19.421 5.46967 19.2803C5.32902 19.1397 5.25 18.9489 5.25 18.75C5.25 18.5511 5.32902 18.3603 5.46967 18.2197C5.61032 18.079 5.80109 18 6 18H7.432V6H6C5.80109 6 5.61032 5.92098 5.46967 5.78033C5.32902 5.63968 5.25 5.44891 5.25 5.25C5.25 5.05109 5.32902 4.86032 5.46967 4.71967C5.61032 4.57902 5.80109 4.5 6 4.5H8.523V3C8.523 2.80109 8.60202 2.61032 8.74267 2.46967C8.88332 2.32902 9.07409 2.25 9.273 2.25ZM8.932 6V11.25H13.636C15.008 11.25 16.159 10.097 16.159 8.625C16.159 7.153 15.008 6 13.636 6H8.932ZM8.932 12.75V18H14.727C16.099 18 17.25 16.847 17.25 15.375C17.25 13.903 16.099 12.75 14.727 12.75H8.932Z" fill="white"/>
</svg>