<svg width="22" height="23" viewBox="0 0 22 23" fill="none" xmlns="http://www.w3.org/2000/svg">
<path d="M11.002 6.99756C11.3999 6.99756 11.7814 6.83953 12.0627 6.55823C12.344 6.27692 12.502 5.89539 12.502 5.49756C12.502 5.09974 12.344 4.71821 12.0627 4.4369C11.7814 4.1556 11.3999 3.99756 11.002 3.99756C10.6042 3.99756 10.2227 4.1556 9.94138 4.4369C9.66007 4.71821 9.50204 5.09974 9.50204 5.49756C9.50204 5.89539 9.66007 6.27692 9.94138 6.55823C10.2227 6.83953 10.6042 6.99756 11.002 6.99756ZM11.892 0.292565C11.6342 0.102524 11.3223 0 11.002 0C10.6817 0 10.3699 0.102524 10.112 0.292565L0.612039 7.29756C-0.551961 8.15657 0.0550395 10.0046 1.50204 10.0046H2.00204V17.2466C1.40961 17.4934 0.903524 17.9101 0.547599 18.4442C0.191673 18.9783 0.00184212 19.6058 0.00203958 20.2476V21.7476C0.00203958 22.1616 0.33804 22.4976 0.75204 22.4976H21.252C21.451 22.4976 21.6417 22.4185 21.7824 22.2779C21.923 22.1372 22.002 21.9465 22.002 21.7476V20.2476C22.002 19.6059 21.8121 18.9787 21.4562 18.4448C21.1003 17.9109 20.5943 17.4943 20.002 17.2476V10.0046H20.501C21.949 10.0046 22.556 8.15657 21.391 7.29756L11.892 0.292565ZM3.50204 16.9976V10.0046H6.00204V16.9976H3.50204ZM18.502 10.0046V16.9976H16.002V10.0046H18.502ZM14.502 10.0046V16.9976H11.752V10.0046H14.502ZM10.252 10.0046V16.9976H7.50204V10.0046H10.252ZM1.50204 8.50456L11.002 1.49956L20.501 8.50456H1.50204ZM1.50204 20.2476C1.50204 19.2816 2.28604 18.4976 3.25204 18.4976H18.752C19.718 18.4976 20.502 19.2816 20.502 20.2476V20.9976H1.50204V20.2476Z" fill="white"/>
</svg>
