<svg width="40" height="30" viewBox="0 0 40 30" fill="none" xmlns="http://www.w3.org/2000/svg">
<g clip-path="url(#clip0_4008_30)">
<path d="M0 0H40V30H0V0Z" fill="#EE1C25"/>
<path d="M4.80004 11.1L7.5 3L10.2 11.1L3.00006 6.15H11.9999L4.80004 11.1Z" fill="#FFFF00"/>
<path d="M16.5107 3.15523L13.7321 3.77098L15.5855 1.61119L15.4037 4.51799L13.8618 1.9446L16.5107 3.15523Z" fill="#FFFF00"/>
<path d="M19.3149 6.70921L16.515 6.19911L19.061 4.92721L17.7661 7.53598L17.3429 4.56598L19.3149 6.70921Z" fill="#FFFF00"/>
<path d="M18.9063 11.6953L16.5578 10.0876L19.4012 9.96465L17.1549 11.8184L17.9798 8.93408L18.9063 11.6953Z" fill="#FFFF00"/>
<path d="M15.3743 14.9525L13.829 12.5625L16.4992 13.5474L13.7113 14.3897L15.5862 12.0478L15.3743 14.9525Z" fill="#FFFF00"/>
</g>
<defs>
<clipPath id="clip0_4008_30">
<rect width="40" height="30" fill="white"/>
</clipPath>
</defs>
</svg>
