<svg width="24" height="24" viewBox="0 0 24 24" fill="none" xmlns="http://www.w3.org/2000/svg">
<path d="M20.661 7.22L12.815 19.714C12.7194 19.8658 12.5867 19.9907 12.4295 20.0771C12.2723 20.1635 12.0957 20.2086 11.9164 20.208C11.737 20.2074 11.5607 20.1612 11.4041 20.0737C11.2474 19.9862 11.1156 19.8604 11.021 19.708L3.32802 7.214C3.11209 6.86425 2.99847 6.46102 3.00002 6.05C3.00923 5.4428 3.25924 4.86413 3.69506 4.44125C4.13088 4.01837 4.71682 3.78591 5.32402 3.795H18.686C19.963 3.794 21 4.8 21 6.044C21 6.457 20.884 6.865 20.661 7.22ZM5.21802 6.8L10.941 15.626V5.912H5.81602C5.22402 5.912 4.95902 6.304 5.21802 6.802M13.058 15.628L18.783 6.8C19.048 6.303 18.777 5.91 18.184 5.91H13.06L13.058 15.628Z" fill="white"/>
</svg>
